# xmcd CD database file
#
# Track frame offsets:
#	150
#	16810
#	33127
#	43482
#	57577
#	73145
#	90507
#	103052
#	118972
#	132105
#	148125
#	162205
#	190905
#	208607
#	236855
#	252755
#	265067
#	282947
#	300890
#	318222
#	339237
#
# Disc length: 4729 seconds
#
# Revision: 0
# Processed by: cddbd v1.5.2PL0 Copyright (c) Steve Scherf et al.
# Submitted via: CDex 1.70beta2
#
DISCID=30127715
DTITLE=Cannonball Adderley - Sophisticated Swing cd1
DYEAR=1957
DGENRE=Jazz
TTITLE0=Bimini
TTITLE1=Sermonette
TTITLE2=Hoppin' John
TTITLE3=Hayseed
TTITLE4=Rattler's groove
TTITLE5=Jackleg
TTITLE6=Room #251
TTITLE7=The fat man
TTITLE8=Yesterdays
TTITLE9=Sam's tune
TTITLE10=Sam's tune 2
TTITLE11=The nearness of you
TTITLE12=Spectacular
TTITLE13=Miss Jackie's delight
TTITLE14=Tribute to Brownie
TTITLE15=Cobbweb
TTITLE16=!8th Century Ballroom
TTITLE17=Lover man
TTITLE18=A foggy day
TTITLE19=Hoppin' John
TTITLE20=Jeannie
EXTD=YEAR: 1957
EXTT0=
EXTT1=
EXTT2=
EXTT3=
EXTT4=
EXTT5=
EXTT6=
EXTT7=
EXTT8=
EXTT9=
EXTT10=
EXTT11=
EXTT12=
EXTT13=
EXTT14=
EXTT15=
EXTT16=
EXTT17=
EXTT18=
EXTT19=
EXTT20=
PLAYORDER=
